<svg width="26" height="18" viewBox="0 0 26 18" fill="none" xmlns="http://www.w3.org/2000/svg">
<path fill-rule="evenodd" clip-rule="evenodd" d="M8.5083 9.12207C8.5083 6.48078 10.6495 4.3396 13.2908 4.3396C15.9321 4.3396 18.0732 6.48078 18.0732 9.12207C18.0732 11.7634 15.9321 13.9045 13.2908 13.9045C10.6495 13.9045 8.5083 11.7634 8.5083 9.12207ZM13.2908 6.25259C11.706 6.25259 10.4213 7.53735 10.4213 9.12207C10.4213 10.7068 11.706 11.9915 13.2908 11.9915C14.8755 11.9915 16.1602 10.7068 16.1602 9.12207C16.1602 7.53735 14.8755 6.25259 13.2908 6.25259Z" fill="#8C8C8C"/>
<path fill-rule="evenodd" clip-rule="evenodd" d="M3.50074 7.39583C2.96623 8.166 2.76943 8.76847 2.76943 9.12211C2.76943 9.47576 2.96623 10.0782 3.50074 10.8484C4.01743 11.5929 4.78544 12.4001 5.7571 13.1458C7.70466 14.6406 10.3748 15.8176 13.2909 15.8176C16.2069 15.8176 18.877 14.6406 20.8246 13.1458C21.7963 12.4001 22.5643 11.5929 23.081 10.8484C23.6155 10.0782 23.8123 9.47576 23.8123 9.12211C23.8123 8.76847 23.6155 8.166 23.081 7.39583C22.5643 6.6513 21.7963 5.84417 20.8246 5.09843C18.877 3.60368 16.2069 2.42666 13.2909 2.42666C10.3748 2.42666 7.70466 3.60368 5.7571 5.09843C4.78544 5.84417 4.01743 6.6513 3.50074 7.39583ZM4.59239 3.58087C6.79901 1.8873 9.86786 0.513672 13.2909 0.513672C16.7138 0.513672 19.7826 1.8873 21.9893 3.58087C23.0948 4.42928 24.0077 5.37577 24.6526 6.30511C25.2797 7.20874 25.7253 8.20044 25.7253 9.12211C25.7253 10.0438 25.2797 11.0355 24.6526 11.9392C24.0077 12.8685 23.0948 13.8149 21.9893 14.6634C19.7826 16.3569 16.7138 17.7306 13.2909 17.7306C9.86786 17.7306 6.79901 16.3569 4.59239 14.6634C3.48696 13.8149 2.57407 12.8685 1.92912 11.9392C1.30201 11.0355 0.856445 10.0438 0.856445 9.12211C0.856445 8.20044 1.30201 7.20874 1.92912 6.30511C2.57407 5.37577 3.48696 4.42928 4.59239 3.58087Z" fill="#8C8C8C"/>
</svg>
