<svg width="16" height="14" viewBox="0 0 16 14" fill="none" xmlns="http://www.w3.org/2000/svg">
<path d="M8.08172 13.8393C7.97069 13.8401 7.86061 13.8188 7.75792 13.7766C7.65524 13.7343 7.56202 13.672 7.48372 13.5933L1.78563 7.89092C1.27351 7.37751 0.891077 6.74948 0.670017 6.05884C0.448957 5.3682 0.39563 4.63483 0.514452 3.91947C0.633275 3.20412 0.920827 2.52737 1.35329 1.94528C1.78575 1.36319 2.35068 0.892518 3.00128 0.572246C3.82181 0.161785 4.74823 0.0120184 5.6563 0.14303C6.56437 0.274041 7.41067 0.679565 8.08172 1.30522C8.75314 0.680211 9.59939 0.275118 10.5073 0.144131C11.4152 0.0131444 12.3415 0.162509 13.1622 0.572246C13.8128 0.892518 14.3777 1.36319 14.8101 1.94528C15.2426 2.52737 15.5302 3.20412 15.649 3.91947C15.7678 4.63483 15.7145 5.3682 15.4934 6.05884C15.2724 6.74948 14.8899 7.37751 14.3778 7.89092L8.67459 13.5933C8.5969 13.6714 8.50451 13.7333 8.40275 13.7756C8.301 13.8178 8.19189 13.8395 8.08172 13.8393Z" fill="#E28542"/>
</svg>
