<svg width="16" height="14" viewBox="0 0 16 14" fill="none" xmlns="http://www.w3.org/2000/svg">
<path d="M8.10796 13.9055C7.99693 13.9063 7.88685 13.885 7.78417 13.8427C7.68148 13.8005 7.58826 13.7382 7.50996 13.6594L1.81187 7.95708C1.29975 7.44368 0.917322 6.81564 0.696262 6.125C0.475203 5.43436 0.421875 4.70099 0.540697 3.98564C0.65952 3.27028 0.947072 2.59353 1.37954 2.01144C1.812 1.42935 2.37693 0.95868 3.02752 0.638408C3.84806 0.227947 4.77447 0.0781805 5.68254 0.209192C6.59061 0.340203 7.43692 0.745727 8.10796 1.37139C8.77938 0.746373 9.62564 0.341281 10.5335 0.210294C11.4414 0.0793065 12.3677 0.228671 13.1884 0.638408C13.839 0.95868 14.4039 1.42935 14.8364 2.01144C15.2689 2.59353 15.5564 3.27028 15.6752 3.98564C15.7941 4.70099 15.7407 5.43436 15.5197 6.125C15.2986 6.81564 14.9162 7.44368 14.4041 7.95708L8.70084 13.6594C8.62314 13.7375 8.53075 13.7995 8.429 13.8417C8.32724 13.884 8.21813 13.9056 8.10796 13.9055ZM4.99409 1.02284C4.44672 1.0198 3.90658 1.1478 3.41879 1.39616C2.88261 1.66211 2.41769 2.05226 2.06271 2.53413C1.70772 3.01601 1.47294 3.57569 1.3779 4.16661C1.28891 4.74193 1.33649 5.33012 1.51679 5.88366C1.6971 6.4372 2.00508 6.94057 2.41585 7.3531L8.11821 13.0555L13.8001 7.3531C14.2108 6.94057 14.5188 6.4372 14.6991 5.88366C14.8794 5.33012 14.927 4.74193 14.838 4.16661C14.743 3.57569 14.5082 3.01601 14.1532 2.53413C13.7982 2.05226 13.3333 1.66211 12.7971 1.39616C12.102 1.06032 11.3194 0.949936 10.5585 1.08042C9.79766 1.21091 9.09653 1.57576 8.55305 2.12401C8.43422 2.24057 8.27441 2.30587 8.10796 2.30587C7.94151 2.30587 7.78171 2.24057 7.66288 2.12401C6.95146 1.42217 5.99344 1.02688 4.99409 1.02284Z" fill="#FFF7F5"/>
</svg>
