<svg width="29" height="23" viewBox="0 0 29 23" fill="none" xmlns="http://www.w3.org/2000/svg">
<path d="M3.09204 0.0368652C1.39657 0.0368652 0 1.43344 0 3.1289V19.5554H0.0107362C-0.00926615 20.8407 1.03644 22.0247 2.40626 22.0247H22.3636C23.6485 22.0247 24.8069 21.2228 25.2584 20.0197L28.6993 10.859V10.8563C29.2875 9.31412 28.1037 7.59518 26.4528 7.59518H26.1105V6.5645C26.1105 4.86903 24.714 3.47246 23.0185 3.47246H13.7719L10.7013 0.913211H10.7C10.021 0.347519 9.1656 0.0368652 8.28167 0.0368652H3.09204ZM3.09204 2.09822H8.28167C8.68403 2.09822 9.07173 2.23933 9.38079 2.49681L12.7386 5.29494C12.9239 5.44939 13.1576 5.53392 13.3988 5.53382H23.0185C23.6001 5.53382 24.0492 5.98285 24.0492 6.5645V7.59518H6.49543C5.21051 7.59518 4.05209 8.39705 3.60067 9.60017L2.06136 13.6987V3.1289C2.06136 2.54726 2.51039 2.09822 3.09204 2.09822ZM6.49543 9.65654H26.4528C26.7275 9.65654 26.8715 9.86621 26.7735 10.1222C26.7726 10.1245 26.7717 10.1267 26.7708 10.1289L23.3285 19.295C23.1766 19.6997 22.7965 19.9633 22.3636 19.9633H2.40626C2.13298 19.9633 1.98823 19.7552 2.08417 19.5003L2.08552 19.499L5.53051 10.3249C5.68237 9.92013 6.06254 9.65654 6.49543 9.65654Z" fill="#8C8C8C"/>
</svg>
