<svg width="29" height="27" viewBox="0 0 29 27" fill="none" xmlns="http://www.w3.org/2000/svg">
<path d="M14.4262 26.2293C14.2162 26.2309 14.008 26.1902 13.8139 26.1096C13.6197 26.0289 13.4434 25.91 13.2954 25.7598L2.52042 14.876C1.55201 13.8961 0.828848 12.6974 0.41083 11.3792C-0.00718828 10.061 -0.108029 8.66125 0.116661 7.29589C0.341351 5.93053 0.885104 4.63886 1.70288 3.52786C2.52066 2.41686 3.58892 1.51851 4.81918 0.907221C6.37079 0.123797 8.12262 -0.162054 9.83976 0.0879995C11.5569 0.338053 13.1572 1.11206 14.4262 2.30621C15.6958 1.11329 17.2961 0.34011 19.0129 0.0901026C20.7297 -0.159905 22.4812 0.125179 24.0331 0.907221C25.2634 1.51851 26.3317 2.41686 27.1494 3.52786C27.9672 4.63886 28.511 5.93053 28.7357 7.29589C28.9604 8.66125 28.8595 10.061 28.4415 11.3792C28.0235 12.6974 27.3003 13.8961 26.3319 14.876L15.5473 25.7598C15.4004 25.9088 15.2256 26.0271 15.0332 26.1077C14.8408 26.1883 14.6345 26.2296 14.4262 26.2293ZM8.53791 1.64096C7.50285 1.63516 6.48145 1.87947 5.55905 2.3535C4.54515 2.86111 3.666 3.60576 2.99474 4.52549C2.32348 5.44522 1.87951 6.51345 1.69978 7.64131C1.5315 8.7394 1.62147 9.86204 1.96243 10.9185C2.30339 11.9751 2.88577 12.9358 3.66253 13.7232L14.4455 24.607L25.1898 13.7232C25.9666 12.9358 26.5489 11.9751 26.8899 10.9185C27.2309 9.86204 27.3208 8.7394 27.1525 7.64131C26.9728 6.51345 26.5288 5.44522 25.8576 4.52549C25.1863 3.60576 24.3072 2.86111 23.2933 2.3535C21.9789 1.7125 20.4989 1.50182 19.0601 1.75087C17.6213 1.99993 16.2955 2.69629 15.2678 3.74271C15.0431 3.96518 14.7409 4.08981 14.4262 4.08981C14.1114 4.08981 13.8092 3.96518 13.5845 3.74271C12.2392 2.40314 10.4277 1.64867 8.53791 1.64096Z" fill="#8C8C8C"/>
</svg>
