<svg width="27" height="27" viewBox="0 0 27 27" fill="none" xmlns="http://www.w3.org/2000/svg">
<path d="M25.2879 10.7663L15.0472 0.739054C14.8162 0.509477 14.5239 0.323996 14.1916 0.196141C13.8594 0.068286 13.4957 0.00128245 13.1269 1.82294e-05C12.7581 -0.001246 12.3937 0.0632612 12.0601 0.188833C11.7265 0.314406 11.4322 0.497876 11.1987 0.72586L0.941484 10.7663C0.332475 11.3572 -0.000361289 12.0988 2.94299e-07 12.8641V22.931C0.00305132 23.805 0.439082 24.6426 1.21282 25.2606C1.98655 25.8787 3.03509 26.227 4.12931 26.2294H22.1001C23.1943 26.227 24.2428 25.8787 25.0166 25.2606C25.7903 24.6426 26.2263 23.805 26.2294 22.931V12.8641C26.2298 12.0988 25.8969 11.3572 25.2879 10.7663ZM9.81124 24.91V17.6534C9.81124 17.1286 10.0723 16.6252 10.5369 16.254C11.0016 15.8829 11.6317 15.6744 12.2888 15.6744H13.9406C14.5977 15.6744 15.2278 15.8829 15.6925 16.254C16.1571 16.6252 16.4181 17.1286 16.4181 17.6534V24.91H9.81124ZM24.5777 22.931C24.5729 23.4547 24.3104 23.9558 23.8467 24.3262C23.3831 24.6965 22.7557 24.9062 22.1001 24.91H18.0699V17.6534C18.0699 16.7786 17.6348 15.9397 16.8604 15.3211C16.086 14.7025 15.0357 14.355 13.9406 14.355H12.2888C11.1937 14.355 10.1434 14.7025 9.36897 15.3211C8.59457 15.9397 8.15952 16.7786 8.15952 17.6534V24.91H4.12931C3.47368 24.9062 2.84626 24.6965 2.38265 24.3262C1.91904 23.9558 1.65648 23.4547 1.65172 22.931V12.8641C1.64849 12.4065 1.84735 11.9627 2.21331 11.6107L12.487 1.57026C12.56 1.49235 12.6548 1.42912 12.7637 1.3856C12.8727 1.34208 12.9929 1.31948 13.1147 1.31958C13.2392 1.31793 13.3624 1.33977 13.4743 1.38333C13.5863 1.42689 13.6838 1.49093 13.7589 1.57026L24.0161 11.6107C24.382 11.9627 24.5809 12.4065 24.5777 12.8641V22.931Z" fill="#E28542"/>
</svg>
