<svg width="27" height="30" viewBox="0 0 27 30" fill="none" xmlns="http://www.w3.org/2000/svg">
<path d="M20.9332 9.63514H20.3593V7.6265C20.5028 3.60923 17.2029 0.309326 13.1856 0.309326C9.16834 0.309326 5.86844 3.60923 5.86844 7.6265V9.77861H5.43801C2.56853 9.77861 0.272949 12.0742 0.272949 14.9437V23.9825C0.272949 26.852 2.56853 29.1476 5.43801 29.1476H21.0767C23.9462 29.1476 26.2417 26.852 26.2417 23.9825V14.9437C26.0983 11.9307 23.8027 9.63514 20.9332 9.63514ZM8.73792 7.6265C8.73792 5.18744 10.7466 3.17881 13.1856 3.17881C15.6247 3.17881 17.6333 5.18744 17.6333 7.6265V9.77861H8.73792V7.6265ZM23.5157 23.8391C23.5157 25.1303 22.2245 26.1346 20.9332 26.1346H5.43801C4.14675 26.1346 3.14243 25.1303 3.14243 23.8391V14.8002C3.14243 13.5089 4.14675 12.5046 5.43801 12.5046H7.44665H19.2115H21.2202C22.5114 12.5046 23.5157 13.5089 23.5157 14.8002V23.8391Z" fill="#8C8C8C"/>
<path d="M13.1857 19.1044C12.3249 19.1044 11.751 19.6783 11.751 20.5391V22.8347C11.751 23.6955 12.3249 24.2694 13.1857 24.2694C14.0466 24.2694 14.6205 23.6955 14.6205 22.8347V20.5391C14.6205 19.6783 14.0466 19.1044 13.1857 19.1044Z" fill="#8C8C8C"/>
</svg>
