<svg width="27" height="22" viewBox="0 0 27 22" fill="none" xmlns="http://www.w3.org/2000/svg">
<path fill-rule="evenodd" clip-rule="evenodd" d="M1.21268 6.05311C0.833924 9.57232 0.850811 13.6311 1.37786 17.136C1.66949 19.0754 3.25228 20.562 5.20606 20.732L7.24794 20.9094C11.5056 21.2796 15.7872 21.2796 20.0449 20.9094L22.0867 20.732C24.0406 20.562 25.6234 19.0754 25.915 17.136C26.442 13.6311 26.4589 9.57259 26.0801 6.05331C26.0312 5.64532 25.9761 5.23789 25.915 4.83113C25.6234 2.89179 24.0406 1.40502 22.0867 1.23518L20.0449 1.05768C15.7872 0.687579 11.5056 0.687579 7.24794 1.05768L5.20606 1.23518C3.25228 1.40502 1.66949 2.89179 1.37786 4.83113C1.31671 5.23781 1.26165 5.64519 1.21268 6.05311ZM7.42357 3.07812C11.5643 2.71817 15.7285 2.71817 19.8693 3.07812L21.9111 3.25562C22.9309 3.34427 23.7572 4.12036 23.9094 5.1327C23.9252 5.23783 23.9406 5.34301 23.9557 5.44824L16.437 9.62532C14.7015 10.5895 12.5913 10.5895 10.8558 9.62532L3.33721 5.44829C3.35217 5.34305 3.36755 5.23785 3.38336 5.1327C3.5356 4.12036 4.36181 3.34427 5.38169 3.25562L7.42357 3.07812ZM24.2037 7.63038C24.466 10.6964 24.3679 13.7857 23.9094 16.8344C23.7572 17.8468 22.9309 18.6228 21.9111 18.7115L19.8693 18.889C15.7285 19.2489 11.5643 19.2489 7.42357 18.889L5.38169 18.7115C4.36181 18.6228 3.5356 17.8468 3.38336 16.8344C2.9249 13.7857 2.82679 10.6965 3.08905 7.63042L9.87087 11.3981C12.2189 12.7025 15.0739 12.7025 17.4218 11.3981L24.2037 7.63038Z" fill="#8C8C8C"/>
</svg>
