<svg width="15" height="8" viewBox="0 0 15 8" fill="none" xmlns="http://www.w3.org/2000/svg">
<path d="M3.27659 3.98936C4.17868 3.98936 4.90929 3.08249 4.90929 1.97126C4.90929 0.872805 4.18241 0 3.27659 0C2.38196 0 1.64389 0.885577 1.64761 1.97552C1.64761 3.08675 2.37823 3.98936 3.27659 3.98936ZM7.5 3.98936C8.39836 3.98936 9.12898 3.08249 9.12898 1.97126C9.12898 0.872805 8.40582 0 7.5 0C6.60164 0 5.8673 0.885577 5.87102 1.97552C5.87102 3.08675 6.60164 3.98936 7.5 3.98936ZM11.7234 3.98936C12.6255 3.98936 13.3561 3.08249 13.3561 1.97126C13.3561 0.872805 12.6292 0 11.7234 0C10.8288 0 10.0907 0.885577 10.0944 1.97552C10.0944 3.08675 10.8251 3.98936 11.7234 3.98936ZM3.27659 3.25705C2.76218 3.25705 2.32232 2.69505 2.32232 1.97552C2.31859 1.27728 2.75472 0.736562 3.27659 0.736562C3.80219 0.736562 4.23459 1.26876 4.23459 1.97126C4.23459 2.68654 3.79846 3.25705 3.27659 3.25705ZM7.5 3.25705C6.98186 3.25705 6.54573 2.69505 6.54573 1.97552C6.542 1.27728 6.97813 0.736562 7.5 0.736562C8.0256 0.736562 8.45428 1.26876 8.45428 1.97126C8.45428 2.68654 8.02187 3.25705 7.5 3.25705ZM11.7234 3.25705C11.209 3.25705 10.7691 2.69505 10.7691 1.97552C10.7654 1.27728 11.2015 0.736562 11.7234 0.736562C12.249 0.736562 12.6814 1.26876 12.6814 1.97126C12.6814 2.68654 12.2453 3.25705 11.7234 3.25705ZM0.954274 8H5.60263C6.24379 8 6.55318 7.77009 6.55318 7.27195C6.55318 6.10538 5.27833 4.53858 3.27659 4.53858C1.27485 4.53858 0 6.10538 0 7.27195C0 7.77009 0.309394 8 0.954274 8ZM7.5 4.53858C6.88867 4.53858 6.34816 4.6876 5.88966 4.92602C6.08723 5.09633 6.26243 5.28366 6.4078 5.48803C6.72093 5.3603 7.08996 5.27515 7.5 5.27515C9.14389 5.27515 10.0683 6.50133 10.0683 7.15274C10.0683 7.23363 10.0348 7.26344 9.94533 7.26344H7.05641C7.06014 7.52741 7.01914 7.77435 6.88494 8H9.82232C10.4635 8 10.7766 7.77009 10.7766 7.27195C10.7766 6.10538 9.49801 4.53858 7.5 4.53858ZM11.7234 4.53858C11.1121 4.53858 10.5716 4.6876 10.1093 4.92602C10.3069 5.09633 10.4858 5.28366 10.6312 5.49228C10.9443 5.3603 11.3134 5.27515 11.7234 5.27515C13.371 5.27515 14.2955 6.50133 14.2955 7.15274C14.2955 7.23363 14.2582 7.26344 14.1725 7.26344H11.2798C11.2798 7.52741 11.2425 7.77435 11.1046 8H14.0495C14.6906 8 15 7.77009 15 7.27195C15 6.10538 13.7251 4.53858 11.7234 4.53858ZM0.827535 7.26344C0.741799 7.26344 0.708251 7.23363 0.708251 7.15274C0.708251 6.50133 1.62898 5.27515 3.27659 5.27515C4.92421 5.27515 5.84866 6.50133 5.84866 7.15274C5.84866 7.23363 5.81138 7.26344 5.72565 7.26344H0.827535Z" fill="#8C8C8C"/>
</svg>
