<svg width="20" height="20" viewBox="0 0 20 20" fill="none" xmlns="http://www.w3.org/2000/svg">
<path d="M18.8925 18.2635L14.8657 14.2368C16.3429 12.5894 17.1212 10.4318 17.0356 8.22078C16.9501 6.00973 16.0075 3.91874 14.4074 2.39043C12.8072 0.862127 10.6752 0.0164624 8.46256 0.0324492C6.24991 0.0484359 4.13032 0.92482 2.55246 2.47609C0.974599 4.02735 0.0623175 6.13175 0.00872693 8.34381C-0.0448636 10.5559 0.764443 12.702 2.26533 14.3278C3.76622 15.9537 5.84089 16.9317 8.05017 17.0548C10.2594 17.1779 12.4299 16.4365 14.1022 14.9874L18.1343 19.0196C18.2354 19.1172 18.3709 19.1713 18.5115 19.1701C18.6521 19.1688 18.7865 19.1125 18.8859 19.013C18.9854 18.9136 19.0417 18.7791 19.043 18.6386C19.0442 18.498 18.9901 18.3625 18.8925 18.2614V18.2635ZM1.06209 8.54139C1.06209 7.06521 1.49983 5.62217 2.31996 4.39477C3.14009 3.16736 4.30576 2.21072 5.66958 1.64581C7.0334 1.08089 8.53411 0.933086 9.98193 1.22108C11.4298 1.50907 12.7597 2.21992 13.8035 3.26374C14.8473 4.30756 15.5582 5.63747 15.8461 7.08529C16.1341 8.53311 15.9863 10.0338 15.4214 11.3976C14.8565 12.7615 13.8999 13.9271 12.6725 14.7473C11.445 15.5674 10.002 16.0051 8.52583 16.0051C6.54702 16.0029 4.64991 15.2158 3.25068 13.8165C1.85145 12.4173 1.06437 10.5202 1.06209 8.54139Z" fill="#8C8C8C"/>
</svg>
