<svg width="22" height="18" viewBox="0 0 22 18" fill="none" xmlns="http://www.w3.org/2000/svg">
<path fill-rule="evenodd" clip-rule="evenodd" d="M14.2841 7.6591C15.0588 7.65897 15.8128 7.40888 16.434 6.946C17.0551 6.48312 17.5104 5.83216 17.732 5.08987H20.4503C20.7229 5.08987 20.9843 4.98159 21.177 4.78886C21.3697 4.59613 21.478 4.33474 21.478 4.06217C21.478 3.78961 21.3697 3.52822 21.177 3.33549C20.9843 3.14276 20.7229 3.03448 20.4503 3.03448H17.732C17.51 2.29257 17.0546 1.64206 16.4335 1.17957C15.8123 0.71708 15.0586 0.467285 14.2841 0.467285C13.5097 0.467285 12.756 0.71708 12.1348 1.17957C11.5137 1.64206 11.0582 2.29257 10.8362 3.03448H1.95183C1.67927 3.03448 1.41787 3.14276 1.22514 3.33549C1.03241 3.52822 0.924133 3.78961 0.924133 4.06217C0.924133 4.33474 1.03241 4.59613 1.22514 4.78886C1.41787 4.98159 1.67927 5.08987 1.95183 5.08987H10.8362C11.0579 5.83216 11.5131 6.48312 12.1343 6.946C12.7555 7.40888 13.5095 7.65897 14.2841 7.6591ZM1.95183 13.3114C1.67927 13.3114 1.41787 13.4197 1.22514 13.6124C1.03241 13.8051 0.924133 14.0665 0.924133 14.3391C0.924133 14.6117 1.03241 14.8731 1.22514 15.0658C1.41787 15.2585 1.67927 15.3668 1.95183 15.3668H4.15623C4.37824 16.1087 4.83365 16.7592 5.4548 17.2217C6.07595 17.6842 6.82972 17.934 7.60414 17.934C8.37856 17.934 9.13232 17.6842 9.75347 17.2217C10.3746 16.7592 10.83 16.1087 11.052 15.3668H20.4503C20.7229 15.3668 20.9843 15.2585 21.177 15.0658C21.3697 14.8731 21.478 14.6117 21.478 14.3391C21.478 14.0665 21.3697 13.8051 21.177 13.6124C20.9843 13.4197 20.7229 13.3114 20.4503 13.3114H11.052C10.83 12.5695 10.3746 11.919 9.75347 11.4565C9.13232 10.994 8.37856 10.7442 7.60414 10.7442C6.82972 10.7442 6.07595 10.994 5.4548 11.4565C4.83365 11.919 4.37824 12.5695 4.15623 13.3114H1.95183Z" fill="#F3F3F3"/>
</svg>
