<svg width="23" height="25" viewBox="0 0 23 25" fill="none" xmlns="http://www.w3.org/2000/svg">
<path fill-rule="evenodd" clip-rule="evenodd" d="M5.36328 6.26439C5.36328 2.89676 8.09329 0.166748 11.4609 0.166748C14.8286 0.166748 17.5586 2.89676 17.5586 6.26439C17.5586 9.63203 14.8286 12.362 11.4609 12.362C8.09329 12.362 5.36328 9.63203 5.36328 6.26439ZM11.4609 2.31886C9.28184 2.31886 7.51539 4.08534 7.51539 6.26439C7.51539 8.44345 9.28184 10.2099 11.4609 10.2099C13.64 10.2099 15.4065 8.44345 15.4065 6.26439C15.4065 4.08534 13.64 2.31886 11.4609 2.31886Z" fill="#8C8C8C"/>
<path fill-rule="evenodd" clip-rule="evenodd" d="M5.72207 16.6663C3.93921 16.6663 2.49391 18.1116 2.49391 19.8944V21.5993C2.49391 21.6253 2.51272 21.6474 2.53834 21.6516C8.44768 22.6164 14.4744 22.6164 20.3837 21.6516C20.4094 21.6474 20.4282 21.6253 20.4282 21.5993V19.8944C20.4282 18.1116 18.9828 16.6663 17.2 16.6663H16.7109C16.6732 16.6663 16.6356 16.6723 16.5996 16.6839L15.3578 17.0895C12.8258 17.9162 10.0963 17.9162 7.56425 17.0895L6.32247 16.6839C6.28653 16.6723 6.24894 16.6663 6.21113 16.6663H5.72207ZM0.341797 19.8944C0.341797 16.9229 2.75063 14.5142 5.72207 14.5142H6.21113C6.47583 14.5142 6.73886 14.5561 6.99048 14.6381L8.23228 15.0437C10.3303 15.7287 12.5918 15.7287 14.6898 15.0437L15.9315 14.6381C16.1832 14.5561 16.4462 14.5142 16.7109 14.5142H17.2C20.1715 14.5142 22.5803 16.9229 22.5803 19.8944V21.5993C22.5803 22.68 21.797 23.6014 20.7305 23.7755C14.5915 24.7779 8.33057 24.7779 2.19156 23.7755C1.12499 23.6014 0.341797 22.68 0.341797 21.5993V19.8944Z" fill="#8C8C8C"/>
</svg>
