<svg width="24" height="24" viewBox="0 0 24 24" fill="none" xmlns="http://www.w3.org/2000/svg">
<path d="M20 10.5V6.8C20 5.11984 20 4.27977 19.673 3.63803C19.3854 3.07354 18.9265 2.6146 18.362 2.32698C17.7202 2 16.8802 2 15.2 2L8.8 2C7.11984 2 6.27976 2 5.63803 2.32698C5.07354 2.6146 4.6146 3.07354 4.32698 3.63803C4 4.27976 4 5.11984 4 6.8L4 10.5M10 10H13.5M8 6L16 6M17.2 22H6.8C5.11984 22 4.27976 22 3.63803 21.673C3.07354 21.3854 2.6146 20.9265 2.32698 20.362C2 19.7202 2 18.8802 2 17.2V12.5621C2 11.6748 2 11.2311 2.18664 10.9701C2.34952 10.7424 2.60039 10.5934 2.87827 10.5594C3.19671 10.5203 3.5863 10.7326 4.36549 11.1571L10.256 14.3664C10.8873 14.7767 11.2029 14.9819 11.543 15.0617C11.8436 15.1323 12.1564 15.1323 12.457 15.0617C12.7971 14.9819 13.1127 14.7767 13.744 14.3664L19.6345 11.1571C20.4137 10.7326 20.8033 10.5203 21.1217 10.5594C21.3996 10.5934 21.6505 10.7424 21.8134 10.9701C22 11.2311 22 11.6748 22 12.5621V17.2C22 18.8802 22 19.7202 21.673 20.362C21.3854 20.9265 20.9265 21.3854 20.362 21.673C19.7202 22 18.8802 22 17.2 22Z" stroke="#303233" stroke-width="2" stroke-linecap="round" stroke-linejoin="round"/>
</svg>
